<mxfile host="app.diagrams.net" modified="2021-03-24T18:32:47.552Z" agent="5.0 (X11; Linux x86_64) AppleWebKit/537.36 (KHTML, like Gecko) Chrome/89.0.4389.90 Safari/537.36" etag="zZ_eVhZ6K76okKD3JxNp" version="14.4.9" type="github" pages="4">
  <diagram id="5plZKbPlIHDqdeCXFDGE" name="usecase">
    <mxGraphModel dx="868" dy="496" grid="1" gridSize="10" guides="1" tooltips="1" connect="1" arrows="1" fold="1" page="1" pageScale="1" pageWidth="827" pageHeight="1169" background="#F4F3ED" math="0" shadow="0">
      <root>
        <mxCell id="0" />
        <mxCell id="1" parent="0" />
        <mxCell id="IZT8jsWd7h7Ih6-XtFO0-38" style="rounded=1;sketch=0;orthogonalLoop=1;jettySize=auto;html=1;entryX=1;entryY=0.5;entryDx=0;entryDy=0;strokeColor=#E07A5F;fillColor=#F2CC8F;fontColor=#393C56;" parent="1" source="IZT8jsWd7h7Ih6-XtFO0-1" target="IZT8jsWd7h7Ih6-XtFO0-17" edge="1">
          <mxGeometry relative="1" as="geometry" />
        </mxCell>
        <mxCell id="IZT8jsWd7h7Ih6-XtFO0-52" style="edgeStyle=none;rounded=1;sketch=0;orthogonalLoop=1;jettySize=auto;html=1;entryX=1;entryY=0.5;entryDx=0;entryDy=0;strokeColor=#E07A5F;fillColor=#F2CC8F;fontColor=#393C56;" parent="1" source="IZT8jsWd7h7Ih6-XtFO0-1" target="IZT8jsWd7h7Ih6-XtFO0-46" edge="1">
          <mxGeometry relative="1" as="geometry" />
        </mxCell>
        <mxCell id="IZT8jsWd7h7Ih6-XtFO0-55" style="edgeStyle=none;rounded=1;sketch=0;orthogonalLoop=1;jettySize=auto;html=1;entryX=1;entryY=0.5;entryDx=0;entryDy=0;strokeColor=#E07A5F;fillColor=#F2CC8F;fontColor=#393C56;" parent="1" source="IZT8jsWd7h7Ih6-XtFO0-1" target="IZT8jsWd7h7Ih6-XtFO0-54" edge="1">
          <mxGeometry relative="1" as="geometry" />
        </mxCell>
        <mxCell id="IZT8jsWd7h7Ih6-XtFO0-1" value="Instructor" style="shape=umlActor;verticalLabelPosition=bottom;verticalAlign=top;html=1;outlineConnect=0;fillColor=#F2CC8F;strokeColor=#E07A5F;fontColor=#393C56;" parent="1" vertex="1">
          <mxGeometry x="725" y="585" width="30" height="60" as="geometry" />
        </mxCell>
        <mxCell id="IZT8jsWd7h7Ih6-XtFO0-56" style="edgeStyle=none;rounded=1;sketch=0;orthogonalLoop=1;jettySize=auto;html=1;entryX=0;entryY=0.5;entryDx=0;entryDy=0;strokeColor=#E07A5F;fillColor=#F2CC8F;fontColor=#393C56;" parent="1" source="IZT8jsWd7h7Ih6-XtFO0-2" target="IZT8jsWd7h7Ih6-XtFO0-54" edge="1">
          <mxGeometry relative="1" as="geometry" />
        </mxCell>
        <mxCell id="IZT8jsWd7h7Ih6-XtFO0-59" style="edgeStyle=none;rounded=1;sketch=0;orthogonalLoop=1;jettySize=auto;html=1;entryX=0;entryY=0.5;entryDx=0;entryDy=0;strokeColor=#E07A5F;fillColor=#F2CC8F;fontColor=#393C56;" parent="1" source="IZT8jsWd7h7Ih6-XtFO0-2" target="IZT8jsWd7h7Ih6-XtFO0-68" edge="1">
          <mxGeometry relative="1" as="geometry" />
        </mxCell>
        <mxCell id="IZT8jsWd7h7Ih6-XtFO0-63" style="edgeStyle=none;rounded=1;sketch=0;orthogonalLoop=1;jettySize=auto;html=1;entryX=0;entryY=0.5;entryDx=0;entryDy=0;strokeColor=#E07A5F;fillColor=#F2CC8F;fontColor=#393C56;" parent="1" source="IZT8jsWd7h7Ih6-XtFO0-2" target="IZT8jsWd7h7Ih6-XtFO0-62" edge="1">
          <mxGeometry relative="1" as="geometry" />
        </mxCell>
        <mxCell id="IZT8jsWd7h7Ih6-XtFO0-65" style="edgeStyle=none;rounded=1;sketch=0;orthogonalLoop=1;jettySize=auto;html=1;entryX=0;entryY=0.5;entryDx=0;entryDy=0;strokeColor=#E07A5F;fillColor=#F2CC8F;fontColor=#393C56;" parent="1" source="IZT8jsWd7h7Ih6-XtFO0-2" target="IZT8jsWd7h7Ih6-XtFO0-64" edge="1">
          <mxGeometry relative="1" as="geometry" />
        </mxCell>
        <mxCell id="IZT8jsWd7h7Ih6-XtFO0-67" style="edgeStyle=none;rounded=1;sketch=0;orthogonalLoop=1;jettySize=auto;html=1;entryX=0;entryY=0.5;entryDx=0;entryDy=0;strokeColor=#E07A5F;fillColor=#F2CC8F;fontColor=#393C56;" parent="1" source="IZT8jsWd7h7Ih6-XtFO0-2" target="IZT8jsWd7h7Ih6-XtFO0-66" edge="1">
          <mxGeometry relative="1" as="geometry" />
        </mxCell>
        <mxCell id="IZT8jsWd7h7Ih6-XtFO0-2" value="Student" style="shape=umlActor;verticalLabelPosition=bottom;verticalAlign=top;html=1;outlineConnect=0;fillColor=#F2CC8F;strokeColor=#E07A5F;fontColor=#393C56;" parent="1" vertex="1">
          <mxGeometry x="35" y="895" width="30" height="60" as="geometry" />
        </mxCell>
        <mxCell id="IZT8jsWd7h7Ih6-XtFO0-3" value="Authenticate" style="ellipse;whiteSpace=wrap;html=1;fillColor=#F2CC8F;strokeColor=#E07A5F;fontColor=#393C56;" parent="1" vertex="1">
          <mxGeometry x="225" y="5" width="120" height="60" as="geometry" />
        </mxCell>
        <mxCell id="IZT8jsWd7h7Ih6-XtFO0-5" style="orthogonalLoop=1;jettySize=auto;html=1;entryX=0;entryY=0.5;entryDx=0;entryDy=0;strokeColor=#E07A5F;fontColor=#393C56;labelBackgroundColor=#F4F1DE;exitX=1;exitY=0.3333333333333333;exitDx=0;exitDy=0;exitPerimeter=0;" parent="1" source="arFLph5ePu7GaWXkt11v-1" target="IZT8jsWd7h7Ih6-XtFO0-3" edge="1">
          <mxGeometry relative="1" as="geometry" />
        </mxCell>
        <mxCell id="IZT8jsWd7h7Ih6-XtFO0-7" style="edgeStyle=none;orthogonalLoop=1;jettySize=auto;html=1;entryX=0;entryY=0.5;entryDx=0;entryDy=0;strokeColor=#E07A5F;fontColor=#393C56;labelBackgroundColor=#F4F1DE;" parent="1" source="arFLph5ePu7GaWXkt11v-1" target="IZT8jsWd7h7Ih6-XtFO0-6" edge="1">
          <mxGeometry relative="1" as="geometry">
            <mxPoint x="255" y="145" as="targetPoint" />
          </mxGeometry>
        </mxCell>
        <mxCell id="IZT8jsWd7h7Ih6-XtFO0-9" style="edgeStyle=none;orthogonalLoop=1;jettySize=auto;html=1;entryX=0;entryY=0.5;entryDx=0;entryDy=0;strokeColor=#E07A5F;fontColor=#393C56;labelBackgroundColor=#F4F1DE;" parent="1" source="IZT8jsWd7h7Ih6-XtFO0-4" target="IZT8jsWd7h7Ih6-XtFO0-8" edge="1">
          <mxGeometry relative="1" as="geometry" />
        </mxCell>
        <mxCell id="IZT8jsWd7h7Ih6-XtFO0-12" style="edgeStyle=none;orthogonalLoop=1;jettySize=auto;html=1;entryX=0;entryY=0.5;entryDx=0;entryDy=0;strokeColor=#E07A5F;fontColor=#393C56;labelBackgroundColor=#F4F1DE;" parent="1" source="IZT8jsWd7h7Ih6-XtFO0-4" target="IZT8jsWd7h7Ih6-XtFO0-11" edge="1">
          <mxGeometry relative="1" as="geometry" />
        </mxCell>
        <mxCell id="IZT8jsWd7h7Ih6-XtFO0-14" style="edgeStyle=none;orthogonalLoop=1;jettySize=auto;html=1;entryX=0;entryY=0.5;entryDx=0;entryDy=0;strokeColor=#E07A5F;fontColor=#393C56;labelBackgroundColor=#F4F1DE;" parent="1" source="IZT8jsWd7h7Ih6-XtFO0-4" target="IZT8jsWd7h7Ih6-XtFO0-13" edge="1">
          <mxGeometry relative="1" as="geometry" />
        </mxCell>
        <mxCell id="IZT8jsWd7h7Ih6-XtFO0-4" value="User" style="shape=umlActor;verticalLabelPosition=bottom;verticalAlign=top;html=1;outlineConnect=0;fillColor=#F2CC8F;strokeColor=#E07A5F;fontColor=#393C56;" parent="1" vertex="1">
          <mxGeometry x="45" y="225" width="30" height="60" as="geometry" />
        </mxCell>
        <mxCell id="IZT8jsWd7h7Ih6-XtFO0-6" value="Xem danh sách các khóa học" style="ellipse;whiteSpace=wrap;html=1;fillColor=#F2CC8F;strokeColor=#E07A5F;fontColor=#393C56;" parent="1" vertex="1">
          <mxGeometry x="225" y="85" width="120" height="60" as="geometry" />
        </mxCell>
        <mxCell id="IZT8jsWd7h7Ih6-XtFO0-8" value="Cập nhật thông tin cá nhân" style="ellipse;whiteSpace=wrap;html=1;fillColor=#F2CC8F;strokeColor=#E07A5F;fontColor=#393C56;" parent="1" vertex="1">
          <mxGeometry x="225" y="165" width="120" height="60" as="geometry" />
        </mxCell>
        <mxCell id="IZT8jsWd7h7Ih6-XtFO0-11" value="Nhắn tin" style="ellipse;whiteSpace=wrap;html=1;fillColor=#F2CC8F;strokeColor=#E07A5F;fontColor=#393C56;" parent="1" vertex="1">
          <mxGeometry x="225" y="245" width="120" height="60" as="geometry" />
        </mxCell>
        <mxCell id="IZT8jsWd7h7Ih6-XtFO0-13" value="Gọi video" style="ellipse;whiteSpace=wrap;html=1;fillColor=#F2CC8F;strokeColor=#E07A5F;fontColor=#393C56;" parent="1" vertex="1">
          <mxGeometry x="225" y="325" width="120" height="60" as="geometry" />
        </mxCell>
        <mxCell id="IZT8jsWd7h7Ih6-XtFO0-47" value="include" style="edgeStyle=none;rounded=1;sketch=0;orthogonalLoop=1;jettySize=auto;html=1;entryX=1;entryY=0.5;entryDx=0;entryDy=0;strokeColor=#E07A5F;fillColor=#F2CC8F;fontColor=#393C56;dashed=1;" parent="1" source="IZT8jsWd7h7Ih6-XtFO0-17" target="IZT8jsWd7h7Ih6-XtFO0-40" edge="1">
          <mxGeometry relative="1" as="geometry" />
        </mxCell>
        <mxCell id="IZT8jsWd7h7Ih6-XtFO0-74" value="include" style="edgeStyle=none;rounded=1;sketch=0;orthogonalLoop=1;jettySize=auto;html=1;entryX=1;entryY=0.5;entryDx=0;entryDy=0;dashed=1;strokeColor=#E07A5F;fillColor=#F2CC8F;fontColor=#393C56;" parent="1" source="IZT8jsWd7h7Ih6-XtFO0-17" target="IZT8jsWd7h7Ih6-XtFO0-73" edge="1">
          <mxGeometry relative="1" as="geometry" />
        </mxCell>
        <mxCell id="IZT8jsWd7h7Ih6-XtFO0-17" value="Tạo khóa học" style="ellipse;whiteSpace=wrap;html=1;fillColor=#F2CC8F;strokeColor=#E07A5F;fontColor=#393C56;" parent="1" vertex="1">
          <mxGeometry x="445" y="455" width="120" height="60" as="geometry" />
        </mxCell>
        <mxCell id="IZT8jsWd7h7Ih6-XtFO0-19" value="Quản lý người dùng" style="ellipse;whiteSpace=wrap;html=1;fillColor=#F2CC8F;strokeColor=#E07A5F;fontColor=#393C56;" parent="1" vertex="1">
          <mxGeometry x="445" y="5" width="120" height="60" as="geometry" />
        </mxCell>
        <mxCell id="IZT8jsWd7h7Ih6-XtFO0-20" style="orthogonalLoop=1;jettySize=auto;html=1;entryX=1;entryY=0.5;entryDx=0;entryDy=0;strokeColor=#E07A5F;fontColor=#393C56;labelBackgroundColor=#F4F1DE;" parent="1" source="IZT8jsWd7h7Ih6-XtFO0-25" target="IZT8jsWd7h7Ih6-XtFO0-19" edge="1">
          <mxGeometry relative="1" as="geometry" />
        </mxCell>
        <mxCell id="IZT8jsWd7h7Ih6-XtFO0-21" style="edgeStyle=none;orthogonalLoop=1;jettySize=auto;html=1;entryX=1;entryY=0.5;entryDx=0;entryDy=0;strokeColor=#E07A5F;fontColor=#393C56;labelBackgroundColor=#F4F1DE;" parent="1" source="IZT8jsWd7h7Ih6-XtFO0-25" target="IZT8jsWd7h7Ih6-XtFO0-26" edge="1">
          <mxGeometry relative="1" as="geometry">
            <mxPoint x="405" y="165" as="targetPoint" />
          </mxGeometry>
        </mxCell>
        <mxCell id="IZT8jsWd7h7Ih6-XtFO0-22" style="edgeStyle=none;orthogonalLoop=1;jettySize=auto;html=1;entryX=1;entryY=0.5;entryDx=0;entryDy=0;strokeColor=#E07A5F;fontColor=#393C56;labelBackgroundColor=#F4F1DE;" parent="1" source="IZT8jsWd7h7Ih6-XtFO0-25" target="IZT8jsWd7h7Ih6-XtFO0-27" edge="1">
          <mxGeometry relative="1" as="geometry" />
        </mxCell>
        <mxCell id="IZT8jsWd7h7Ih6-XtFO0-23" style="edgeStyle=none;orthogonalLoop=1;jettySize=auto;html=1;entryX=1;entryY=0.5;entryDx=0;entryDy=0;strokeColor=#E07A5F;fontColor=#393C56;labelBackgroundColor=#F4F1DE;" parent="1" source="IZT8jsWd7h7Ih6-XtFO0-25" target="IZT8jsWd7h7Ih6-XtFO0-28" edge="1">
          <mxGeometry relative="1" as="geometry" />
        </mxCell>
        <mxCell id="IZT8jsWd7h7Ih6-XtFO0-25" value="Moderator" style="shape=umlActor;verticalLabelPosition=bottom;verticalAlign=top;html=1;outlineConnect=0;fillColor=#F2CC8F;strokeColor=#E07A5F;fontColor=#393C56;" parent="1" vertex="1">
          <mxGeometry x="725" y="115" width="30" height="60" as="geometry" />
        </mxCell>
        <mxCell id="IZT8jsWd7h7Ih6-XtFO0-26" value="Quản lý khóa học" style="ellipse;whiteSpace=wrap;html=1;fillColor=#F2CC8F;strokeColor=#E07A5F;fontColor=#393C56;" parent="1" vertex="1">
          <mxGeometry x="445" y="85" width="120" height="60" as="geometry" />
        </mxCell>
        <mxCell id="IZT8jsWd7h7Ih6-XtFO0-27" value="Quản lý tag" style="ellipse;whiteSpace=wrap;html=1;fillColor=#F2CC8F;strokeColor=#E07A5F;fontColor=#393C56;" parent="1" vertex="1">
          <mxGeometry x="445" y="165" width="120" height="60" as="geometry" />
        </mxCell>
        <mxCell id="IZT8jsWd7h7Ih6-XtFO0-28" value="Quản lý khuyễn mãi" style="ellipse;whiteSpace=wrap;html=1;fillColor=#F2CC8F;strokeColor=#E07A5F;fontColor=#393C56;" parent="1" vertex="1">
          <mxGeometry x="445" y="245" width="120" height="60" as="geometry" />
        </mxCell>
        <mxCell id="IZT8jsWd7h7Ih6-XtFO0-33" style="edgeStyle=none;orthogonalLoop=1;jettySize=auto;html=1;endArrow=block;endFill=0;strokeColor=#E07A5F;fontColor=#393C56;labelBackgroundColor=#F4F1DE;" parent="1" source="IZT8jsWd7h7Ih6-XtFO0-30" edge="1">
          <mxGeometry relative="1" as="geometry">
            <mxPoint x="740" y="205" as="targetPoint" />
          </mxGeometry>
        </mxCell>
        <mxCell id="IZT8jsWd7h7Ih6-XtFO0-37" style="edgeStyle=none;orthogonalLoop=1;jettySize=auto;html=1;entryX=1;entryY=0.5;entryDx=0;entryDy=0;endArrow=classic;endFill=1;strokeColor=#E07A5F;fontColor=#393C56;labelBackgroundColor=#F4F1DE;" parent="1" source="IZT8jsWd7h7Ih6-XtFO0-30" target="IZT8jsWd7h7Ih6-XtFO0-35" edge="1">
          <mxGeometry relative="1" as="geometry" />
        </mxCell>
        <mxCell id="IZT8jsWd7h7Ih6-XtFO0-30" value="Administrator" style="shape=umlActor;verticalLabelPosition=bottom;verticalAlign=top;html=1;outlineConnect=0;fillColor=#F2CC8F;strokeColor=#E07A5F;fontColor=#393C56;" parent="1" vertex="1">
          <mxGeometry x="725" y="295" width="30" height="60" as="geometry" />
        </mxCell>
        <mxCell id="IZT8jsWd7h7Ih6-XtFO0-35" value="Quản lý admin/mod" style="ellipse;whiteSpace=wrap;html=1;fillColor=#F2CC8F;strokeColor=#E07A5F;fontColor=#393C56;" parent="1" vertex="1">
          <mxGeometry x="445" y="325" width="120" height="60" as="geometry" />
        </mxCell>
        <mxCell id="IZT8jsWd7h7Ih6-XtFO0-40" value="Tạo các chương học" style="ellipse;whiteSpace=wrap;html=1;rounded=0;sketch=0;strokeColor=#E07A5F;fillColor=#F2CC8F;fontColor=#393C56;" parent="1" vertex="1">
          <mxGeometry x="230" y="515" width="110" height="60" as="geometry" />
        </mxCell>
        <mxCell id="IZT8jsWd7h7Ih6-XtFO0-53" value="Thông báo đến người&lt;br&gt;tham gia khóa học" style="edgeStyle=none;rounded=1;sketch=0;orthogonalLoop=1;jettySize=auto;html=1;strokeColor=#E07A5F;fillColor=#F2CC8F;fontColor=#393C56;" parent="1" source="IZT8jsWd7h7Ih6-XtFO0-46" target="IZT8jsWd7h7Ih6-XtFO0-2" edge="1">
          <mxGeometry x="0.1317" y="-27" relative="1" as="geometry">
            <mxPoint as="offset" />
          </mxGeometry>
        </mxCell>
        <mxCell id="IZT8jsWd7h7Ih6-XtFO0-46" value="Đặt lịch stream/call" style="ellipse;whiteSpace=wrap;html=1;rounded=0;sketch=0;strokeColor=#E07A5F;fillColor=#F2CC8F;fontColor=#393C56;" parent="1" vertex="1">
          <mxGeometry x="345" y="600" width="110" height="60" as="geometry" />
        </mxCell>
        <mxCell id="IZT8jsWd7h7Ih6-XtFO0-54" value="Gửi tài nguyên vào khóa học" style="ellipse;whiteSpace=wrap;html=1;rounded=0;sketch=0;strokeColor=#E07A5F;fillColor=#F2CC8F;fontColor=#393C56;" parent="1" vertex="1">
          <mxGeometry x="345" y="720" width="110" height="60" as="geometry" />
        </mxCell>
        <mxCell id="IZT8jsWd7h7Ih6-XtFO0-57" value="Mua khóa học" style="ellipse;whiteSpace=wrap;html=1;rounded=0;sketch=0;strokeColor=#E07A5F;fillColor=#F2CC8F;fontColor=#393C56;" parent="1" vertex="1">
          <mxGeometry x="545" y="800" width="110" height="60" as="geometry" />
        </mxCell>
        <mxCell id="IZT8jsWd7h7Ih6-XtFO0-61" value="extend" style="edgeStyle=none;rounded=1;sketch=0;orthogonalLoop=1;jettySize=auto;html=1;entryX=1;entryY=0.5;entryDx=0;entryDy=0;strokeColor=#E07A5F;fillColor=#F2CC8F;fontColor=#393C56;dashed=1;" parent="1" source="IZT8jsWd7h7Ih6-XtFO0-60" target="IZT8jsWd7h7Ih6-XtFO0-57" edge="1">
          <mxGeometry relative="1" as="geometry" />
        </mxCell>
        <mxCell id="IZT8jsWd7h7Ih6-XtFO0-60" value="Đánh giá khóa học" style="ellipse;whiteSpace=wrap;html=1;rounded=0;sketch=0;strokeColor=#E07A5F;fillColor=#F2CC8F;fontColor=#393C56;" parent="1" vertex="1">
          <mxGeometry x="675" y="860" width="110" height="60" as="geometry" />
        </mxCell>
        <mxCell id="IZT8jsWd7h7Ih6-XtFO0-62" value="Đánh giá Instructor" style="ellipse;whiteSpace=wrap;html=1;rounded=0;sketch=0;strokeColor=#E07A5F;fillColor=#F2CC8F;fontColor=#393C56;" parent="1" vertex="1">
          <mxGeometry x="345" y="1100" width="110" height="60" as="geometry" />
        </mxCell>
        <mxCell id="IZT8jsWd7h7Ih6-XtFO0-64" value="Follow Instructor" style="ellipse;whiteSpace=wrap;html=1;rounded=0;sketch=0;strokeColor=#E07A5F;fillColor=#F2CC8F;fontColor=#393C56;" parent="1" vertex="1">
          <mxGeometry x="345" y="1000" width="110" height="60" as="geometry" />
        </mxCell>
        <mxCell id="IZT8jsWd7h7Ih6-XtFO0-66" value="Thêm tag yêu thích" style="ellipse;whiteSpace=wrap;html=1;rounded=0;sketch=0;strokeColor=#E07A5F;fillColor=#F2CC8F;fontColor=#393C56;" parent="1" vertex="1">
          <mxGeometry x="345" y="810" width="110" height="60" as="geometry" />
        </mxCell>
        <mxCell id="IZT8jsWd7h7Ih6-XtFO0-69" value="include" style="edgeStyle=none;rounded=1;sketch=0;orthogonalLoop=1;jettySize=auto;html=1;entryX=0;entryY=0.5;entryDx=0;entryDy=0;strokeColor=#E07A5F;fillColor=#F2CC8F;fontColor=#393C56;dashed=1;" parent="1" source="IZT8jsWd7h7Ih6-XtFO0-68" target="IZT8jsWd7h7Ih6-XtFO0-57" edge="1">
          <mxGeometry relative="1" as="geometry" />
        </mxCell>
        <mxCell id="IZT8jsWd7h7Ih6-XtFO0-68" value="Học khóa học" style="ellipse;whiteSpace=wrap;html=1;rounded=0;sketch=0;strokeColor=#E07A5F;fillColor=#F2CC8F;fontColor=#393C56;" parent="1" vertex="1">
          <mxGeometry x="345" y="900" width="110" height="60" as="geometry" />
        </mxCell>
        <mxCell id="IZT8jsWd7h7Ih6-XtFO0-70" value="Khóa học:&lt;br&gt;- Full stream&lt;br&gt;- Recorded&lt;br&gt;- Mix" style="shape=note;whiteSpace=wrap;html=1;backgroundOutline=1;darkOpacity=0.05;rounded=0;sketch=0;strokeColor=#d6b656;fillColor=#fff2cc;align=left;fontColor=#393C56;" parent="1" vertex="1">
          <mxGeometry x="585" y="425" width="90" height="110" as="geometry" />
        </mxCell>
        <mxCell id="IZT8jsWd7h7Ih6-XtFO0-72" value="extend" style="edgeStyle=none;rounded=1;sketch=0;orthogonalLoop=1;jettySize=auto;html=1;entryX=1;entryY=0.5;entryDx=0;entryDy=0;dashed=1;strokeColor=#E07A5F;fillColor=#F2CC8F;fontColor=#393C56;" parent="1" source="IZT8jsWd7h7Ih6-XtFO0-71" target="IZT8jsWd7h7Ih6-XtFO0-68" edge="1">
          <mxGeometry relative="1" as="geometry" />
        </mxCell>
        <mxCell id="IZT8jsWd7h7Ih6-XtFO0-71" value="Tham gia phòng họp trực tuyến" style="ellipse;whiteSpace=wrap;html=1;rounded=0;sketch=0;strokeColor=#E07A5F;fillColor=#F2CC8F;fontColor=#393C56;" parent="1" vertex="1">
          <mxGeometry x="545" y="900" width="110" height="60" as="geometry" />
        </mxCell>
        <mxCell id="IZT8jsWd7h7Ih6-XtFO0-73" value="Thêm tag" style="ellipse;whiteSpace=wrap;html=1;rounded=0;sketch=0;strokeColor=#E07A5F;fillColor=#F2CC8F;fontColor=#393C56;" parent="1" vertex="1">
          <mxGeometry x="230" y="410" width="110" height="60" as="geometry" />
        </mxCell>
        <mxCell id="dZKI4s27ZK44j0xTkER0-1" value="Xem nội dung khóa học có sẵn" style="ellipse;whiteSpace=wrap;html=1;rounded=0;sketch=0;strokeColor=#E07A5F;fillColor=#F2CC8F;fontColor=#393C56;" parent="1" vertex="1">
          <mxGeometry x="545" y="990" width="110" height="60" as="geometry" />
        </mxCell>
        <mxCell id="dZKI4s27ZK44j0xTkER0-3" value="extend" style="edgeStyle=none;rounded=1;sketch=0;orthogonalLoop=1;jettySize=auto;html=1;entryX=1;entryY=1;entryDx=0;entryDy=0;dashed=1;strokeColor=#E07A5F;fillColor=#F2CC8F;fontColor=#393C56;exitX=0;exitY=0.5;exitDx=0;exitDy=0;" parent="1" source="dZKI4s27ZK44j0xTkER0-1" target="IZT8jsWd7h7Ih6-XtFO0-68" edge="1">
          <mxGeometry relative="1" as="geometry">
            <mxPoint x="555" y="940" as="sourcePoint" />
            <mxPoint x="465" y="940" as="targetPoint" />
          </mxGeometry>
        </mxCell>
        <mxCell id="dZKI4s27ZK44j0xTkER0-4" value="Note" style="ellipse;whiteSpace=wrap;html=1;rounded=0;sketch=0;strokeColor=#E07A5F;fillColor=#F2CC8F;fontColor=#393C56;" parent="1" vertex="1">
          <mxGeometry x="675" y="1060" width="110" height="60" as="geometry" />
        </mxCell>
        <mxCell id="dZKI4s27ZK44j0xTkER0-6" value="extend" style="edgeStyle=none;rounded=1;sketch=0;orthogonalLoop=1;jettySize=auto;html=1;entryX=1;entryY=0.5;entryDx=0;entryDy=0;dashed=1;strokeColor=#E07A5F;fillColor=#F2CC8F;fontColor=#393C56;" parent="1" target="dZKI4s27ZK44j0xTkER0-1" edge="1">
          <mxGeometry relative="1" as="geometry">
            <mxPoint x="706.370387440837" y="1056.2614499582378" as="sourcePoint" />
            <mxPoint x="546.940872965256" y="1040.003203435594" as="targetPoint" />
          </mxGeometry>
        </mxCell>
        <mxCell id="arFLph5ePu7GaWXkt11v-1" value="Guest" style="shape=umlActor;verticalLabelPosition=bottom;verticalAlign=top;html=1;outlineConnect=0;fillColor=#F2CC8F;strokeColor=#E07A5F;fontColor=#393C56;" parent="1" vertex="1">
          <mxGeometry x="45" y="70" width="30" height="60" as="geometry" />
        </mxCell>
        <mxCell id="arFLph5ePu7GaWXkt11v-3" style="orthogonalLoop=1;jettySize=auto;html=1;strokeColor=#E07A5F;fontColor=#393C56;labelBackgroundColor=#F4F1DE;exitX=0.5;exitY=0;exitDx=0;exitDy=0;exitPerimeter=0;endArrow=block;endFill=0;" parent="1" source="IZT8jsWd7h7Ih6-XtFO0-4" edge="1">
          <mxGeometry relative="1" as="geometry">
            <mxPoint x="85" y="244.9999999999999" as="sourcePoint" />
            <mxPoint x="60" y="160" as="targetPoint" />
          </mxGeometry>
        </mxCell>
      </root>
    </mxGraphModel>
  </diagram>
  <diagram id="CSzuKnT7pl9subbZKO6k" name="Authenticate">
    <mxGraphModel dx="723" dy="413" grid="1" gridSize="10" guides="1" tooltips="1" connect="1" arrows="1" fold="1" page="1" pageScale="1" pageWidth="1169" pageHeight="827" math="0" shadow="0">
      <root>
        <mxCell id="YXVXnza312GTvQSpl3c0-0" />
        <mxCell id="YXVXnza312GTvQSpl3c0-1" parent="YXVXnza312GTvQSpl3c0-0" />
        <mxCell id="rkF5n9aHgRFFSLXnaOAu-7" style="edgeStyle=none;rounded=0;orthogonalLoop=1;jettySize=auto;html=1;labelBackgroundColor=none;strokeWidth=2;fontSize=14;fontColor=#000099;align=center;strokeColor=#009900;" edge="1" parent="YXVXnza312GTvQSpl3c0-1" source="VImSQu9Y0tgujIvfEzwX-1">
          <mxGeometry relative="1" as="geometry">
            <mxPoint x="890" y="320" as="sourcePoint" />
            <mxPoint x="590" y="450" as="targetPoint" />
            <Array as="points">
              <mxPoint x="920" y="320" />
            </Array>
          </mxGeometry>
        </mxCell>
        <mxCell id="AdHL_aWxln2ZtfmQ-k74-7" value="&lt;font color=&quot;#009900&quot; style=&quot;font-size: 13px&quot;&gt;Login Credential / Refresh&lt;br&gt;token / 3rd party user info&lt;br&gt;&lt;/font&gt;" style="edgeStyle=orthogonalEdgeStyle;rounded=0;orthogonalLoop=1;jettySize=auto;html=1;strokeWidth=2;fontSize=19;fontColor=#1A1A1A;strokeColor=#009900;horizontal=1;labelBackgroundColor=none;align=center;" edge="1" parent="YXVXnza312GTvQSpl3c0-1">
          <mxGeometry x="-0.0526" relative="1" as="geometry">
            <mxPoint x="530" y="473" as="sourcePoint" />
            <mxPoint x="340" y="473" as="targetPoint" />
            <Array as="points">
              <mxPoint x="500" y="473" />
              <mxPoint x="500" y="473" />
            </Array>
            <mxPoint x="1" as="offset" />
          </mxGeometry>
        </mxCell>
        <mxCell id="rkF5n9aHgRFFSLXnaOAu-6" value="" style="rounded=0;orthogonalLoop=1;jettySize=auto;html=1;labelBackgroundColor=#ffffff;strokeColor=#000099;strokeWidth=2;fontSize=14;fontColor=#000099;align=center;exitX=0.986;exitY=0.457;exitDx=0;exitDy=0;exitPerimeter=0;" edge="1" parent="YXVXnza312GTvQSpl3c0-1" source="AdHL_aWxln2ZtfmQ-k74-0" target="VImSQu9Y0tgujIvfEzwX-1">
          <mxGeometry relative="1" as="geometry">
            <mxPoint x="590" y="510" as="sourcePoint" />
            <mxPoint x="820" y="300" as="targetPoint" />
          </mxGeometry>
        </mxCell>
        <mxCell id="rkF5n9aHgRFFSLXnaOAu-10" style="edgeStyle=none;rounded=0;orthogonalLoop=1;jettySize=auto;html=1;labelBackgroundColor=#ffffff;strokeWidth=2;fontSize=14;fontColor=#000099;align=center;strokeColor=#000099;entryX=-0.012;entryY=0.701;entryDx=0;entryDy=0;entryPerimeter=0;" edge="1" parent="YXVXnza312GTvQSpl3c0-1" target="rkF5n9aHgRFFSLXnaOAu-4">
          <mxGeometry relative="1" as="geometry">
            <mxPoint x="825" y="510" as="targetPoint" />
            <mxPoint x="595" y="510" as="sourcePoint" />
          </mxGeometry>
        </mxCell>
        <mxCell id="VImSQu9Y0tgujIvfEzwX-0" value="Refresh token store in httpOnly cookie" style="edgeLabel;html=1;align=center;verticalAlign=middle;resizable=0;points=[];fontSize=14;fontColor=#000099;" vertex="1" connectable="0" parent="rkF5n9aHgRFFSLXnaOAu-10">
          <mxGeometry x="0.1988" y="-4" relative="1" as="geometry">
            <mxPoint x="-31.47" y="10.16" as="offset" />
          </mxGeometry>
        </mxCell>
        <mxCell id="AdHL_aWxln2ZtfmQ-k74-0" value="&lt;span style=&quot;background-color: rgb(255 , 255 , 255) ; font-size: 19px&quot;&gt;Server&lt;/span&gt;" style="outlineConnect=0;fontColor=#232F3E;gradientColor=none;strokeColor=none;dashed=0;verticalLabelPosition=top;verticalAlign=bottom;align=center;html=1;fontSize=19;fontStyle=0;aspect=fixed;pointerEvents=1;shape=mxgraph.aws4.traditional_server;fillColor=#1A1A1A;labelPosition=center;horizontal=1;" vertex="1" parent="YXVXnza312GTvQSpl3c0-1">
          <mxGeometry x="530" y="434" width="57.69" height="100" as="geometry" />
        </mxCell>
        <mxCell id="AdHL_aWxln2ZtfmQ-k74-10" value="Access token&lt;br style=&quot;font-size: 14px;&quot;&gt;Refresh token" style="edgeStyle=orthogonalEdgeStyle;rounded=0;orthogonalLoop=1;jettySize=auto;html=1;strokeWidth=2;fontSize=14;strokeColor=#000099;horizontal=0;fontColor=#000099;labelBackgroundColor=none;" edge="1" parent="YXVXnza312GTvQSpl3c0-1">
          <mxGeometry relative="1" as="geometry">
            <mxPoint x="281" y="290" as="sourcePoint" />
            <mxPoint x="281" y="444" as="targetPoint" />
            <Array as="points">
              <mxPoint x="281" y="320" />
              <mxPoint x="281" y="320" />
            </Array>
          </mxGeometry>
        </mxCell>
        <mxCell id="AdHL_aWxln2ZtfmQ-k74-1" value="&lt;span style=&quot;font-size: 18px;&quot;&gt;Auth Service&lt;/span&gt;" style="whiteSpace=wrap;html=1;aspect=fixed;labelBackgroundColor=none;fontSize=18;fontColor=#1A1A1A;align=center;" vertex="1" parent="YXVXnza312GTvQSpl3c0-1">
          <mxGeometry x="260" y="210" width="80" height="80" as="geometry" />
        </mxCell>
        <mxCell id="AdHL_aWxln2ZtfmQ-k74-8" style="edgeStyle=orthogonalEdgeStyle;rounded=0;orthogonalLoop=1;jettySize=auto;html=1;strokeWidth=2;fontSize=19;fontColor=#1A1A1A;strokeColor=#000099;" edge="1" parent="YXVXnza312GTvQSpl3c0-1">
          <mxGeometry relative="1" as="geometry">
            <mxPoint x="340" y="510" as="sourcePoint" />
            <mxPoint x="530" y="510" as="targetPoint" />
            <Array as="points">
              <mxPoint x="480" y="510" />
              <mxPoint x="480" y="510" />
            </Array>
          </mxGeometry>
        </mxCell>
        <mxCell id="AdHL_aWxln2ZtfmQ-k74-9" style="edgeStyle=orthogonalEdgeStyle;rounded=0;orthogonalLoop=1;jettySize=auto;html=1;strokeWidth=2;fontSize=19;fontColor=#1A1A1A;strokeColor=#009900;entryX=0.379;entryY=1.004;entryDx=0;entryDy=0;entryPerimeter=0;" edge="1" parent="YXVXnza312GTvQSpl3c0-1">
          <mxGeometry relative="1" as="geometry">
            <mxPoint x="319.0044827586207" y="443.68" as="sourcePoint" />
            <mxPoint x="319.28999999999996" y="290.00000000000006" as="targetPoint" />
            <Array as="points">
              <mxPoint x="318.97" y="379.68" />
              <mxPoint x="318.97" y="379.68" />
            </Array>
          </mxGeometry>
        </mxCell>
        <mxCell id="AdHL_aWxln2ZtfmQ-k74-2" value="&lt;font style=&quot;font-size: 19px&quot;&gt;Proxy &lt;/font&gt;&lt;br&gt;(Inject some infomation)" style="pointerEvents=1;shadow=0;dashed=0;html=1;strokeColor=none;fillColor=#4495D1;labelPosition=center;verticalLabelPosition=bottom;verticalAlign=top;align=center;outlineConnect=0;shape=mxgraph.veeam.2d.proxy;labelBackgroundColor=#ffffff;fontSize=15;fontColor=#1A1A1A;horizontal=1;" vertex="1" parent="YXVXnza312GTvQSpl3c0-1">
          <mxGeometry x="260" y="444" width="80" height="80" as="geometry" />
        </mxCell>
        <mxCell id="rkF5n9aHgRFFSLXnaOAu-4" value="&lt;font color=&quot;#1a1a1a&quot;&gt;Web client&lt;/font&gt;" style="shape=image;html=1;verticalAlign=top;verticalLabelPosition=bottom;labelBackgroundColor=#ffffff;imageAspect=0;aspect=fixed;image=https://cdn3.iconfinder.com/data/icons/streamline-icon-set-free-pack/48/Streamline-17-128.png;fontSize=14;fontColor=#000099;align=center;" vertex="1" parent="YXVXnza312GTvQSpl3c0-1">
          <mxGeometry x="890" y="420" width="128" height="128" as="geometry" />
        </mxCell>
        <mxCell id="rkF5n9aHgRFFSLXnaOAu-9" style="edgeStyle=none;rounded=0;orthogonalLoop=1;jettySize=auto;html=1;labelBackgroundColor=#ffffff;strokeColor=#009900;strokeWidth=2;fontSize=14;fontColor=#000099;align=center;exitX=0.005;exitY=0.542;exitDx=0;exitDy=0;exitPerimeter=0;" edge="1" parent="YXVXnza312GTvQSpl3c0-1" source="rkF5n9aHgRFFSLXnaOAu-4">
          <mxGeometry relative="1" as="geometry">
            <mxPoint x="827.9999999999998" y="489" as="sourcePoint" />
            <mxPoint x="587.6899999999998" y="489" as="targetPoint" />
          </mxGeometry>
        </mxCell>
        <mxCell id="VImSQu9Y0tgujIvfEzwX-1" value="Mobile client" style="outlineConnect=0;fontColor=#232F3E;gradientColor=none;fillColor=#232F3E;strokeColor=none;dashed=0;verticalLabelPosition=bottom;verticalAlign=top;align=center;html=1;fontSize=12;fontStyle=0;aspect=fixed;pointerEvents=1;shape=mxgraph.aws4.mobile_client;labelBackgroundColor=none;" vertex="1" parent="YXVXnza312GTvQSpl3c0-1">
          <mxGeometry x="919.84" y="270" width="68.33" height="130" as="geometry" />
        </mxCell>
      </root>
    </mxGraphModel>
  </diagram>
  <diagram id="RvHDJ1kNJIi9Ndnm_6iz" name="System">
    <mxGraphModel dx="1240" dy="709" grid="1" gridSize="10" guides="1" tooltips="1" connect="1" arrows="1" fold="1" page="1" pageScale="1" pageWidth="1169" pageHeight="827" math="0" shadow="0">
      <root>
        <mxCell id="fFk0APMbvgvG1B_QwdTo-0" />
        <mxCell id="fFk0APMbvgvG1B_QwdTo-1" parent="fFk0APMbvgvG1B_QwdTo-0" />
        <mxCell id="fFk0APMbvgvG1B_QwdTo-37" value="Frontend" style="whiteSpace=wrap;html=1;aspect=fixed;strokeColor=#1A1A1A;strokeWidth=1;fillColor=#FFFFFF;fontSize=16;fontColor=#000000;labelPosition=center;verticalLabelPosition=top;align=center;verticalAlign=bottom;labelBackgroundColor=#ffffff;spacingLeft=60;" parent="fFk0APMbvgvG1B_QwdTo-1" vertex="1">
          <mxGeometry x="794" y="304" width="210" height="210" as="geometry" />
        </mxCell>
        <mxCell id="fFk0APMbvgvG1B_QwdTo-34" value="Backend" style="whiteSpace=wrap;html=1;strokeColor=#1A1A1A;strokeWidth=1;fontSize=16;fontColor=#000000;fillColor=#FFFFFF;labelPosition=center;verticalLabelPosition=top;align=center;verticalAlign=bottom;" parent="fFk0APMbvgvG1B_QwdTo-1" vertex="1">
          <mxGeometry x="334" y="194" width="170" height="310" as="geometry" />
        </mxCell>
        <mxCell id="yCLVny36ch6rVB5bmsJB-0" value="Sync" style="edgeStyle=orthogonalEdgeStyle;rounded=0;orthogonalLoop=1;jettySize=auto;html=1;entryX=1;entryY=0.5;entryDx=0;entryDy=0;strokeWidth=3;fontSize=15;fontColor=#1A1A1A;" edge="1" parent="fFk0APMbvgvG1B_QwdTo-1" source="fFk0APMbvgvG1B_QwdTo-3" target="BszoYHcKFOdgURZNUV6c-1">
          <mxGeometry relative="1" as="geometry" />
        </mxCell>
        <mxCell id="fFk0APMbvgvG1B_QwdTo-3" value="" style="outlineConnect=0;fontColor=#232F3E;gradientColor=none;strokeColor=none;dashed=0;verticalLabelPosition=bottom;verticalAlign=top;align=center;html=1;fontSize=12;fontStyle=0;aspect=fixed;pointerEvents=1;shape=mxgraph.aws4.rds_mysql_instance;fillColor=#000000;" parent="fFk0APMbvgvG1B_QwdTo-1" vertex="1">
          <mxGeometry x="380" y="214" width="78" height="78" as="geometry" />
        </mxCell>
        <mxCell id="fFk0APMbvgvG1B_QwdTo-13" value="API" style="rounded=0;orthogonalLoop=1;jettySize=auto;html=1;fontColor=#000000;fontSize=16;strokeWidth=3;exitX=0;exitY=0.5;exitDx=0;exitDy=0;" parent="fFk0APMbvgvG1B_QwdTo-1" source="fFk0APMbvgvG1B_QwdTo-37" target="fFk0APMbvgvG1B_QwdTo-10" edge="1">
          <mxGeometry relative="1" as="geometry">
            <mxPoint x="594" y="464" as="sourcePoint" />
          </mxGeometry>
        </mxCell>
        <mxCell id="fFk0APMbvgvG1B_QwdTo-9" value="React" style="shape=image;html=1;verticalAlign=top;verticalLabelPosition=bottom;labelBackgroundColor=#ffffff;imageAspect=0;aspect=fixed;image=https://cdn3.iconfinder.com/data/icons/seo-marketing-19/32/SEO-17-128.png;fillColor=#000000;fontColor=#000000;fontSize=16;" parent="fFk0APMbvgvG1B_QwdTo-1" vertex="1">
          <mxGeometry x="834" y="329" width="80" height="80" as="geometry" />
        </mxCell>
        <mxCell id="fFk0APMbvgvG1B_QwdTo-33" value="Pub" style="rounded=0;orthogonalLoop=1;jettySize=auto;html=1;fontSize=16;fontColor=#000000;strokeWidth=3;strokeColor=#007FFF;" parent="fFk0APMbvgvG1B_QwdTo-1" source="fFk0APMbvgvG1B_QwdTo-10" edge="1">
          <mxGeometry relative="1" as="geometry">
            <mxPoint x="604" y="204" as="targetPoint" />
          </mxGeometry>
        </mxCell>
        <mxCell id="fFk0APMbvgvG1B_QwdTo-39" value="Sub" style="edgeStyle=none;rounded=0;orthogonalLoop=1;jettySize=auto;html=1;strokeColor=#007FFF;strokeWidth=3;fontSize=16;fontColor=#1A1A1A;entryX=0.5;entryY=0;entryDx=0;entryDy=0;" parent="fFk0APMbvgvG1B_QwdTo-1" source="fFk0APMbvgvG1B_QwdTo-30" target="fFk0APMbvgvG1B_QwdTo-37" edge="1">
          <mxGeometry relative="1" as="geometry">
            <mxPoint x="724" y="394" as="targetPoint" />
            <Array as="points" />
          </mxGeometry>
        </mxCell>
        <mxCell id="fFk0APMbvgvG1B_QwdTo-30" value="Message, Notification broker&lt;br&gt;&lt;font style=&quot;font-size: 13px&quot;&gt;(Websocket/Pusher/RabbitMQ)&lt;/font&gt;" style="pointerEvents=1;shadow=0;dashed=0;html=1;strokeColor=none;labelPosition=center;verticalLabelPosition=bottom;verticalAlign=top;outlineConnect=0;align=center;shape=mxgraph.office.communications.im_workload;fontSize=16;fontColor=#000000;fillColor=#000033;" parent="fFk0APMbvgvG1B_QwdTo-1" vertex="1">
          <mxGeometry x="614" y="154" width="80" height="80" as="geometry" />
        </mxCell>
        <mxCell id="fFk0APMbvgvG1B_QwdTo-36" value="" style="endArrow=classic;startArrow=classic;html=1;strokeWidth=3;fontSize=16;fontColor=#000000;" parent="fFk0APMbvgvG1B_QwdTo-1" source="fFk0APMbvgvG1B_QwdTo-10" target="fFk0APMbvgvG1B_QwdTo-3" edge="1">
          <mxGeometry width="50" height="50" relative="1" as="geometry">
            <mxPoint x="404" y="424" as="sourcePoint" />
            <mxPoint x="454" y="374" as="targetPoint" />
          </mxGeometry>
        </mxCell>
        <mxCell id="fFk0APMbvgvG1B_QwdTo-38" value="" style="verticalAlign=top;verticalLabelPosition=bottom;labelPosition=center;align=center;html=1;outlineConnect=0;fillColor=#CCCCCC;gradientColor=none;gradientDirection=north;strokeWidth=2;shape=mxgraph.networks.mobile;fontColor=#1A1A1A;strokeColor=#1A1A1A;" parent="fFk0APMbvgvG1B_QwdTo-1" vertex="1">
          <mxGeometry x="923" y="399" width="50" height="100" as="geometry" />
        </mxCell>
        <mxCell id="fFk0APMbvgvG1B_QwdTo-40" value="Media Server SFU&lt;br&gt;(NodeJs???)" style="points=[[0.015,0.015,0],[0.985,0.015,0],[0.985,0.985,0],[0.015,0.985,0],[0.25,0,0],[0.5,0,0],[0.75,0,0],[1,0.25,0],[1,0.5,0],[1,0.75,0],[0.75,1,0],[0.5,1,0],[0.25,1,0],[0,0.75,0],[0,0.5,0],[0,0.25,0]];verticalLabelPosition=bottom;html=1;verticalAlign=top;aspect=fixed;align=center;pointerEvents=1;shape=mxgraph.cisco19.rect;prIcon=video_gateway;fillColor=#FAFAFA;fontSize=16;fontColor=#1A1A1A;strokeColor=#003300;" parent="fFk0APMbvgvG1B_QwdTo-1" vertex="1">
          <mxGeometry x="604" y="574" width="128" height="100" as="geometry" />
        </mxCell>
        <mxCell id="fFk0APMbvgvG1B_QwdTo-41" value="WebRTC" style="endArrow=classic;startArrow=classic;html=1;strokeWidth=3;fontSize=16;fontColor=#1A1A1A;exitX=1;exitY=0.5;exitDx=0;exitDy=0;exitPerimeter=0;strokeColor=#009900;entryX=0.5;entryY=1;entryDx=0;entryDy=0;" parent="fFk0APMbvgvG1B_QwdTo-1" source="fFk0APMbvgvG1B_QwdTo-40" target="fFk0APMbvgvG1B_QwdTo-37" edge="1">
          <mxGeometry width="50" height="50" relative="1" as="geometry">
            <mxPoint x="644" y="704" as="sourcePoint" />
            <mxPoint x="694" y="654" as="targetPoint" />
          </mxGeometry>
        </mxCell>
        <mxCell id="fFk0APMbvgvG1B_QwdTo-43" value="MQTT" style="endArrow=classic;startArrow=classic;html=1;strokeWidth=3;fontSize=16;fontColor=#1A1A1A;exitX=0;exitY=0.5;exitDx=0;exitDy=0;exitPerimeter=0;strokeColor=#99FF33;" parent="fFk0APMbvgvG1B_QwdTo-1" source="fFk0APMbvgvG1B_QwdTo-40" target="fFk0APMbvgvG1B_QwdTo-10" edge="1">
          <mxGeometry width="50" height="50" relative="1" as="geometry">
            <mxPoint x="709" y="714" as="sourcePoint" />
            <mxPoint x="709" y="594" as="targetPoint" />
          </mxGeometry>
        </mxCell>
        <mxCell id="fFk0APMbvgvG1B_QwdTo-46" value="Recommendation &lt;br&gt;system server (Python)" style="outlineConnect=0;dashed=0;verticalLabelPosition=bottom;verticalAlign=top;align=center;html=1;shape=mxgraph.aws3.android;fillColor=#FFD44F;gradientColor=none;strokeColor=#003300;strokeWidth=1;fontSize=16;fontColor=#1A1A1A;" parent="fFk0APMbvgvG1B_QwdTo-1" vertex="1">
          <mxGeometry x="382.25" y="544" width="73.5" height="84" as="geometry" />
        </mxCell>
        <mxCell id="fFk0APMbvgvG1B_QwdTo-48" value="" style="endArrow=classic;startArrow=classic;html=1;strokeWidth=3;fontSize=16;fontColor=#000000;exitX=0.5;exitY=0;exitDx=0;exitDy=0;exitPerimeter=0;" parent="fFk0APMbvgvG1B_QwdTo-1" source="fFk0APMbvgvG1B_QwdTo-46" target="fFk0APMbvgvG1B_QwdTo-10" edge="1">
          <mxGeometry width="50" height="50" relative="1" as="geometry">
            <mxPoint x="364" y="846" as="sourcePoint" />
            <mxPoint x="363.99875" y="564" as="targetPoint" />
          </mxGeometry>
        </mxCell>
        <mxCell id="BszoYHcKFOdgURZNUV6c-3" value="&lt;font style=&quot;font-size: 15px&quot;&gt;Search Data&lt;/font&gt;" style="edgeStyle=orthogonalEdgeStyle;rounded=0;orthogonalLoop=1;jettySize=auto;html=1;strokeWidth=3;fontColor=#1A1A1A;" edge="1" parent="fFk0APMbvgvG1B_QwdTo-1" source="BszoYHcKFOdgURZNUV6c-1" target="fFk0APMbvgvG1B_QwdTo-10">
          <mxGeometry relative="1" as="geometry">
            <Array as="points">
              <mxPoint x="215" y="409" />
            </Array>
          </mxGeometry>
        </mxCell>
        <mxCell id="BszoYHcKFOdgURZNUV6c-1" value="&lt;font style=&quot;font-size: 15px;&quot;&gt;Elasticsearch&lt;/font&gt;" style="shape=image;html=1;verticalAlign=top;verticalLabelPosition=bottom;labelBackgroundColor=#ffffff;imageAspect=0;aspect=fixed;image=https://cdn4.iconfinder.com/data/icons/logos-brands-5/24/elasticsearch-128.png;fontColor=#1A1A1A;fillOpacity=86;fontSize=15;" vertex="1" parent="fFk0APMbvgvG1B_QwdTo-1">
          <mxGeometry x="180" y="220.5" width="65" height="65" as="geometry" />
        </mxCell>
        <mxCell id="fFk0APMbvgvG1B_QwdTo-10" value="&lt;span style=&quot;background-color: rgb(255 , 255 , 255)&quot;&gt;Laravel&lt;/span&gt;" style="outlineConnect=0;fontColor=#232F3E;gradientColor=none;strokeColor=none;dashed=0;verticalLabelPosition=middle;verticalAlign=bottom;align=center;html=1;fontSize=16;fontStyle=0;aspect=fixed;pointerEvents=1;shape=mxgraph.aws4.traditional_server;fillColor=#1A1A1A;labelPosition=left;horizontal=0;" parent="fFk0APMbvgvG1B_QwdTo-1" vertex="1">
          <mxGeometry x="390.15" y="359" width="57.69" height="100" as="geometry" />
        </mxCell>
      </root>
    </mxGraphModel>
  </diagram>
  <diagram id="GlSMpwsHtydvujBneQ-o" name="webRTC">
    <mxGraphModel dx="1021" dy="584" grid="1" gridSize="10" guides="1" tooltips="1" connect="1" arrows="1" fold="1" page="1" pageScale="1" pageWidth="1169" pageHeight="827" math="0" shadow="0">
      <root>
        <mxCell id="V_DcOLHjAQjuO55y5VyR-0" />
        <mxCell id="V_DcOLHjAQjuO55y5VyR-1" parent="V_DcOLHjAQjuO55y5VyR-0" />
        <mxCell id="V_DcOLHjAQjuO55y5VyR-2" value="Livestream room" style="whiteSpace=wrap;html=1;strokeColor=#1A1A1A;strokeWidth=1;fontSize=16;fontColor=#000000;fillColor=#FFFFFF;labelPosition=center;verticalLabelPosition=top;align=center;verticalAlign=bottom;" parent="V_DcOLHjAQjuO55y5VyR-1" vertex="1">
          <mxGeometry x="255" y="193" width="660" height="440" as="geometry" />
        </mxCell>
        <mxCell id="V_DcOLHjAQjuO55y5VyR-3" style="edgeStyle=none;rounded=0;orthogonalLoop=1;jettySize=auto;html=1;entryX=0;entryY=0.75;entryDx=0;entryDy=0;strokeColor=#009900;strokeWidth=3;fontSize=16;fontColor=#1A1A1A;" parent="V_DcOLHjAQjuO55y5VyR-1" source="V_DcOLHjAQjuO55y5VyR-6" target="V_DcOLHjAQjuO55y5VyR-10" edge="1">
          <mxGeometry relative="1" as="geometry" />
        </mxCell>
        <mxCell id="V_DcOLHjAQjuO55y5VyR-4" value="WebRTC" style="edgeStyle=none;rounded=0;orthogonalLoop=1;jettySize=auto;html=1;entryX=0;entryY=0.75;entryDx=0;entryDy=0;strokeColor=#009900;strokeWidth=3;fontSize=16;fontColor=#1A1A1A;" parent="V_DcOLHjAQjuO55y5VyR-1" source="V_DcOLHjAQjuO55y5VyR-6" target="V_DcOLHjAQjuO55y5VyR-11" edge="1">
          <mxGeometry relative="1" as="geometry" />
        </mxCell>
        <mxCell id="V_DcOLHjAQjuO55y5VyR-5" style="edgeStyle=none;rounded=0;orthogonalLoop=1;jettySize=auto;html=1;entryX=0;entryY=0.75;entryDx=0;entryDy=0;strokeColor=#009900;strokeWidth=3;fontSize=16;fontColor=#1A1A1A;" parent="V_DcOLHjAQjuO55y5VyR-1" source="V_DcOLHjAQjuO55y5VyR-6" target="V_DcOLHjAQjuO55y5VyR-13" edge="1">
          <mxGeometry relative="1" as="geometry" />
        </mxCell>
        <mxCell id="V_DcOLHjAQjuO55y5VyR-6" value="mediasoup" style="points=[[0.015,0.015,0],[0.985,0.015,0],[0.985,0.985,0],[0.015,0.985,0],[0.25,0,0],[0.5,0,0],[0.75,0,0],[1,0.25,0],[1,0.5,0],[1,0.75,0],[0.75,1,0],[0.5,1,0],[0.25,1,0],[0,0.75,0],[0,0.5,0],[0,0.25,0]];verticalLabelPosition=top;html=1;verticalAlign=bottom;aspect=fixed;align=center;pointerEvents=1;shape=mxgraph.cisco19.rect;prIcon=video_gateway;fillColor=#FAFAFA;fontSize=16;fontColor=#1A1A1A;strokeColor=#003300;labelPosition=center;" parent="V_DcOLHjAQjuO55y5VyR-1" vertex="1">
          <mxGeometry x="525" y="293" width="128" height="100" as="geometry" />
        </mxCell>
        <mxCell id="V_DcOLHjAQjuO55y5VyR-7" value="WebRTC" style="edgeStyle=none;rounded=0;orthogonalLoop=1;jettySize=auto;html=1;entryX=0;entryY=0.5;entryDx=0;entryDy=0;entryPerimeter=0;strokeColor=#009900;strokeWidth=3;fontSize=16;fontColor=#1A1A1A;" parent="V_DcOLHjAQjuO55y5VyR-1" source="V_DcOLHjAQjuO55y5VyR-8" target="V_DcOLHjAQjuO55y5VyR-6" edge="1">
          <mxGeometry relative="1" as="geometry" />
        </mxCell>
        <mxCell id="V_DcOLHjAQjuO55y5VyR-8" value="Speaker" style="shape=image;html=1;verticalAlign=top;verticalLabelPosition=bottom;labelBackgroundColor=#ffffff;imageAspect=0;aspect=fixed;image=https://cdn0.iconfinder.com/data/icons/education-340/99/Tilda_Icons_1ed_speaker-128.png;strokeColor=#003300;strokeWidth=1;fillColor=#000033;fontSize=16;fontColor=#1A1A1A;align=center;" parent="V_DcOLHjAQjuO55y5VyR-1" vertex="1">
          <mxGeometry x="301.15" y="303" width="80" height="80" as="geometry" />
        </mxCell>
        <mxCell id="V_DcOLHjAQjuO55y5VyR-9" value="as Signaling server" style="outlineConnect=0;fontColor=#232F3E;gradientColor=none;strokeColor=none;dashed=0;verticalLabelPosition=bottom;verticalAlign=top;align=center;html=1;fontSize=16;fontStyle=0;aspect=fixed;pointerEvents=1;shape=mxgraph.aws4.traditional_server;fillColor=#1A1A1A;labelPosition=center;horizontal=1;" parent="V_DcOLHjAQjuO55y5VyR-1" vertex="1">
          <mxGeometry x="560.16" y="493" width="57.69" height="100" as="geometry" />
        </mxCell>
        <mxCell id="V_DcOLHjAQjuO55y5VyR-10" value="" style="shape=actor;whiteSpace=wrap;html=1;strokeWidth=2;fontSize=16;fontColor=#1A1A1A;align=center;fillColor=none;strokeColor=#1A1A1A;" parent="V_DcOLHjAQjuO55y5VyR-1" vertex="1">
          <mxGeometry x="775" y="213" width="40" height="60" as="geometry" />
        </mxCell>
        <mxCell id="V_DcOLHjAQjuO55y5VyR-11" value="" style="shape=actor;whiteSpace=wrap;html=1;strokeWidth=2;fontSize=16;fontColor=#1A1A1A;align=center;fillColor=none;strokeColor=#1A1A1A;" parent="V_DcOLHjAQjuO55y5VyR-1" vertex="1">
          <mxGeometry x="775" y="303" width="40" height="60" as="geometry" />
        </mxCell>
        <mxCell id="V_DcOLHjAQjuO55y5VyR-12" value="Enter room" style="edgeStyle=entityRelationEdgeStyle;rounded=0;orthogonalLoop=1;jettySize=auto;html=1;strokeWidth=3;fontSize=16;fontColor=#1A1A1A;strokeColor=#1A1A1A;exitX=0.5;exitY=1;exitDx=0;exitDy=0;" parent="V_DcOLHjAQjuO55y5VyR-1" source="V_DcOLHjAQjuO55y5VyR-13" target="V_DcOLHjAQjuO55y5VyR-9" edge="1">
          <mxGeometry relative="1" as="geometry" />
        </mxCell>
        <mxCell id="V_DcOLHjAQjuO55y5VyR-13" value="Listener" style="shape=actor;whiteSpace=wrap;html=1;strokeWidth=2;fontSize=16;fontColor=#1A1A1A;align=center;fillColor=none;strokeColor=#1A1A1A;labelPosition=center;verticalLabelPosition=bottom;verticalAlign=top;" parent="V_DcOLHjAQjuO55y5VyR-1" vertex="1">
          <mxGeometry x="775" y="393" width="40" height="60" as="geometry" />
        </mxCell>
        <mxCell id="V_DcOLHjAQjuO55y5VyR-14" value="Make room&lt;br&gt;Enter room" style="rounded=0;orthogonalLoop=1;jettySize=auto;html=1;fontColor=#000000;fontSize=16;strokeWidth=3;exitX=0.5;exitY=1;exitDx=0;exitDy=0;edgeStyle=entityRelationEdgeStyle;" parent="V_DcOLHjAQjuO55y5VyR-1" source="V_DcOLHjAQjuO55y5VyR-8" target="V_DcOLHjAQjuO55y5VyR-9" edge="1">
          <mxGeometry relative="1" as="geometry">
            <mxPoint x="653" y="453" as="sourcePoint" />
            <mxPoint x="306.8399999999999" y="453" as="targetPoint" />
          </mxGeometry>
        </mxCell>
        <mxCell id="V_DcOLHjAQjuO55y5VyR-15" value="MQTT" style="endArrow=classic;startArrow=classic;html=1;strokeWidth=3;fontSize=16;fontColor=#1A1A1A;entryX=0.5;entryY=1;entryDx=0;entryDy=0;entryPerimeter=0;strokeColor=#99FF33;" parent="V_DcOLHjAQjuO55y5VyR-1" source="V_DcOLHjAQjuO55y5VyR-9" target="V_DcOLHjAQjuO55y5VyR-6" edge="1">
          <mxGeometry width="50" height="50" relative="1" as="geometry">
            <mxPoint x="565" y="473" as="sourcePoint" />
            <mxPoint x="615" y="423" as="targetPoint" />
          </mxGeometry>
        </mxCell>
      </root>
    </mxGraphModel>
  </diagram>
</mxfile>
